<?xml version="1.0" encoding="UTF-8"?>
<svg width="256" height="256" viewBox="0 0 256 256" fill="none" xmlns="http://www.w3.org/2000/svg" role="img" aria-label="Default Word document">
  <defs>
    <linearGradient id="docxBg" x1="0" y1="0" x2="0" y2="1">
      <stop offset="0%" stop-color="#eff6ff"/>
      <stop offset="100%" stop-color="#dbeafe"/>
    </linearGradient>
  </defs>
  <rect width="256" height="256" rx="16" fill="url(#docxBg)" stroke="#93c5fd" stroke-width="2"/>
  <!-- Word icon -->
  <rect x="64" y="48" width="128" height="160" rx="8" fill="#2563eb" fill-opacity="0.1" stroke="#2563eb" stroke-width="2"/>
  <!-- Page fold -->
  <path d="M168 48L192 72L168 72Z" fill="#60a5fa"/>
  <path d="M168 48L168 72L192 72" fill="none" stroke="#2563eb" stroke-width="2"/>
  <!-- Text lines -->
  <rect x="80" y="88" width="96" height="4" rx="2" fill="#60a5fa"/>
  <rect x="80" y="100" width="80" height="4" rx="2" fill="#60a5fa"/>
  <rect x="80" y="112" width="88" height="4" rx="2" fill="#60a5fa"/>
  <rect x="80" y="124" width="72" height="4" rx="2" fill="#60a5fa"/>
  <rect x="80" y="136" width="84" height="4" rx="2" fill="#60a5fa"/>
  <rect x="80" y="148" width="76" height="4" rx="2" fill="#60a5fa"/>
  <rect x="80" y="160" width="90" height="4" rx="2" fill="#60a5fa"/>
  <!-- DOC text -->
  <text x="128" y="194" text-anchor="middle" fill="#2563eb" font-family="Arial, sans-serif" font-size="16" font-weight="bold">DOC</text>
</svg>
